<mxfile host="app.diagrams.net" modified="2024-07-02T22:57:50.218Z" agent="Mozilla/5.0 (Windows NT 10.0; Win64; x64) AppleWebKit/537.36 (KHTML, like Gecko) Chrome/124.0.0.0 Safari/537.36" etag="0S_ct53YYIxVEdxlQSTg" version="24.6.4" type="device">
  <diagram name="start GUI" id="iksDxQ5HEGY_t7do6rFN">
    <mxGraphModel dx="2284" dy="738" grid="1" gridSize="10" guides="1" tooltips="1" connect="1" arrows="1" fold="1" page="1" pageScale="1" pageWidth="850" pageHeight="1100" math="0" shadow="0">
      <root>
        <mxCell id="0" />
        <mxCell id="1" style="locked=1;" parent="0" />
        <mxCell id="JEiM4xDWkNpShPy7EBwu-5" value="The alleged gods" style="strokeWidth=1;shadow=0;dashed=0;align=center;html=1;shape=mxgraph.mockup.containers.window;align=left;verticalAlign=top;spacingLeft=8;strokeColor2=#008cff;strokeColor3=#c4c4c4;fontColor=#666666;mainText=;fontSize=17;labelBackgroundColor=none;whiteSpace=wrap;fillColor=#F8F4E4;" parent="1" vertex="1">
          <mxGeometry x="400" y="70" width="720" height="490" as="geometry" />
        </mxCell>
        <mxCell id="JEiM4xDWkNpShPy7EBwu-6" value="Untitled Layer" style="locked=1;" parent="0" />
        <mxCell id="JEiM4xDWkNpShPy7EBwu-8" value="" style="endArrow=none;html=1;rounded=0;strokeColor=#FF3333;shape=link;strokeWidth=2;" parent="JEiM4xDWkNpShPy7EBwu-6" edge="1">
          <mxGeometry width="50" height="50" relative="1" as="geometry">
            <mxPoint x="380" y="200" as="sourcePoint" />
            <mxPoint x="1140" y="200" as="targetPoint" />
          </mxGeometry>
        </mxCell>
        <mxCell id="JEiM4xDWkNpShPy7EBwu-9" value="" style="endArrow=none;html=1;rounded=0;strokeColor=#FF3333;shape=link;strokeWidth=2;" parent="JEiM4xDWkNpShPy7EBwu-6" edge="1">
          <mxGeometry width="50" height="50" relative="1" as="geometry">
            <mxPoint x="380" y="480" as="sourcePoint" />
            <mxPoint x="1140" y="480" as="targetPoint" />
          </mxGeometry>
        </mxCell>
        <mxCell id="XhFEnANj9DKwVtLJGlU8-2" value="Untitled Layer" style="locked=1;" parent="0" />
        <mxCell id="XhFEnANj9DKwVtLJGlU8-12" value="Row 0" style="rounded=1;whiteSpace=wrap;html=1;fillColor=#d5e8d4;strokeColor=#82b366;" parent="XhFEnANj9DKwVtLJGlU8-2" vertex="1">
          <mxGeometry x="210" y="120" width="180" height="40" as="geometry" />
        </mxCell>
        <mxCell id="XhFEnANj9DKwVtLJGlU8-13" value="Row 1" style="rounded=1;whiteSpace=wrap;html=1;fillColor=#dae8fc;strokeColor=#6c8ebf;" parent="XhFEnANj9DKwVtLJGlU8-2" vertex="1">
          <mxGeometry x="210" y="310" width="180" height="40" as="geometry" />
        </mxCell>
        <mxCell id="XhFEnANj9DKwVtLJGlU8-14" value="Row 2" style="rounded=1;whiteSpace=wrap;html=1;fillColor=#ffe6cc;strokeColor=#d79b00;" parent="XhFEnANj9DKwVtLJGlU8-2" vertex="1">
          <mxGeometry x="210" y="500" width="180" height="40" as="geometry" />
        </mxCell>
        <mxCell id="XhFEnANj9DKwVtLJGlU8-21" value="intro_frame" style="rounded=1;whiteSpace=wrap;html=1;fillColor=#a20025;strokeColor=#6F0000;fontColor=#ffffff;" parent="XhFEnANj9DKwVtLJGlU8-2" vertex="1">
          <mxGeometry x="170" y="70" width="220" height="40" as="geometry" />
        </mxCell>
        <mxCell id="XhFEnANj9DKwVtLJGlU8-22" value="how_many_frame" style="rounded=1;whiteSpace=wrap;html=1;fillColor=#a20025;strokeColor=#6F0000;fontColor=#ffffff;" parent="XhFEnANj9DKwVtLJGlU8-2" vertex="1">
          <mxGeometry x="-20" y="500" width="220" height="40" as="geometry" />
        </mxCell>
        <mxCell id="XhFEnANj9DKwVtLJGlU8-17" value="Untitled Layer" parent="0" />
        <mxCell id="XhFEnANj9DKwVtLJGlU8-28" value="&lt;span style=&quot;font-size: 30px;&quot;&gt;&lt;b&gt;&lt;font color=&quot;#845444&quot;&gt;The Greek Gods Quiz (Allegedly)&lt;/font&gt;&lt;/b&gt;&lt;/span&gt;" style="text;html=1;align=center;verticalAlign=middle;whiteSpace=wrap;rounded=0;" parent="XhFEnANj9DKwVtLJGlU8-17" vertex="1">
          <mxGeometry x="410" y="110" width="700" height="80" as="geometry" />
        </mxCell>
        <mxCell id="XhFEnANj9DKwVtLJGlU8-29" value="&lt;span style=&quot;font-size: 20px;&quot;&gt;&lt;font color=&quot;#845444&quot;&gt;Welcome! This programme is a quiz about Greek gods!&lt;br&gt;In each round, you&#39;ll be asked a question and given six answers to choose from. You need to have a score that is more than the computer&#39;s score in order to win.&lt;br&gt;&lt;br&gt;Please select a number of rounds below. You can do a custom set, or an infinite set by selecting &quot;custom&quot; and adding in a number, or just type in &quot;inf&quot;&lt;/font&gt;&lt;/span&gt;" style="text;html=1;align=left;verticalAlign=middle;whiteSpace=wrap;rounded=0;" parent="XhFEnANj9DKwVtLJGlU8-17" vertex="1">
          <mxGeometry x="410" y="210" width="700" height="260" as="geometry" />
        </mxCell>
        <mxCell id="XhFEnANj9DKwVtLJGlU8-35" value="&lt;font color=&quot;#ffffff&quot;&gt;&lt;span style=&quot;font-size: 30px;&quot;&gt;&lt;b&gt;5 Rounds&lt;/b&gt;&lt;/span&gt;&lt;/font&gt;" style="rounded=1;whiteSpace=wrap;html=1;fillColor=#F03A47;" parent="XhFEnANj9DKwVtLJGlU8-17" vertex="1">
          <mxGeometry x="410" y="490" width="220" height="60" as="geometry" />
        </mxCell>
        <mxCell id="XhFEnANj9DKwVtLJGlU8-36" value="&lt;b style=&quot;color: rgb(255, 255, 255); font-size: 30px;&quot;&gt;10 Rounds&lt;/b&gt;" style="rounded=1;whiteSpace=wrap;html=1;fillColor=#276FBF;strokeColor=#000000;" parent="XhFEnANj9DKwVtLJGlU8-17" vertex="1">
          <mxGeometry x="650" y="490" width="220" height="60" as="geometry" />
        </mxCell>
        <mxCell id="XhFEnANj9DKwVtLJGlU8-37" value="&lt;font color=&quot;#ffffff&quot;&gt;&lt;span style=&quot;font-size: 20px;&quot;&gt;&lt;b&gt;#F03A47&lt;/b&gt;&lt;/span&gt;&lt;/font&gt;" style="rounded=1;whiteSpace=wrap;html=1;fillColor=#F03A47;" parent="XhFEnANj9DKwVtLJGlU8-17" vertex="1">
          <mxGeometry x="432.5" y="590" width="177.5" height="30" as="geometry" />
        </mxCell>
        <mxCell id="XhFEnANj9DKwVtLJGlU8-38" value="&lt;font color=&quot;#ffffff&quot;&gt;&lt;span style=&quot;font-size: 20px;&quot;&gt;&lt;b&gt;#276FBF&lt;/b&gt;&lt;/span&gt;&lt;/font&gt;" style="rounded=1;whiteSpace=wrap;html=1;fillColor=#276FBF;strokeColor=#000000;" parent="XhFEnANj9DKwVtLJGlU8-17" vertex="1">
          <mxGeometry x="670" y="590" width="180" height="30" as="geometry" />
        </mxCell>
        <mxCell id="XhFEnANj9DKwVtLJGlU8-40" value="&lt;font color=&quot;#ffffff&quot;&gt;&lt;span style=&quot;font-size: 20px;&quot;&gt;&lt;b&gt;#DCBC8C&lt;/b&gt;&lt;/span&gt;&lt;/font&gt;" style="rounded=1;whiteSpace=wrap;html=1;fillColor=#DCBC8C;strokeColor=#DCBC8C;" parent="XhFEnANj9DKwVtLJGlU8-17" vertex="1">
          <mxGeometry x="912.5" y="590" width="175" height="30" as="geometry" />
        </mxCell>
        <mxCell id="XhFEnANj9DKwVtLJGlU8-41" value="&lt;font color=&quot;#ffffff&quot;&gt;&lt;span style=&quot;font-size: 30px;&quot;&gt;&lt;b&gt;Custom&lt;/b&gt;&lt;/span&gt;&lt;/font&gt;" style="rounded=1;whiteSpace=wrap;html=1;fillColor=#DCBC8C;strokeColor=#DCBC8C;" parent="XhFEnANj9DKwVtLJGlU8-17" vertex="1">
          <mxGeometry x="890" y="490" width="220" height="60" as="geometry" />
        </mxCell>
        <mxCell id="XhFEnANj9DKwVtLJGlU8-42" value="&lt;font size=&quot;1&quot; color=&quot;#ffffff&quot;&gt;&lt;b style=&quot;font-size: 15px;&quot;&gt;row=0, column=0&lt;/b&gt;&lt;/font&gt;" style="rounded=1;whiteSpace=wrap;html=1;fillColor=#60a917;fontColor=#ffffff;strokeColor=#2D7600;" parent="XhFEnANj9DKwVtLJGlU8-17" vertex="1">
          <mxGeometry x="432.5" y="560" width="177.5" height="20" as="geometry" />
        </mxCell>
        <mxCell id="XhFEnANj9DKwVtLJGlU8-43" value="&lt;font size=&quot;1&quot; color=&quot;#ffffff&quot;&gt;&lt;b style=&quot;font-size: 15px;&quot;&gt;row=0, column=1&lt;/b&gt;&lt;/font&gt;" style="rounded=1;whiteSpace=wrap;html=1;fillColor=#60a917;fontColor=#ffffff;strokeColor=#2D7600;" parent="XhFEnANj9DKwVtLJGlU8-17" vertex="1">
          <mxGeometry x="670" y="560" width="180" height="20" as="geometry" />
        </mxCell>
        <mxCell id="XhFEnANj9DKwVtLJGlU8-44" value="&lt;font size=&quot;1&quot; color=&quot;#ffffff&quot;&gt;&lt;b style=&quot;font-size: 15px;&quot;&gt;row=0, column=2&lt;/b&gt;&lt;/font&gt;" style="rounded=1;whiteSpace=wrap;html=1;fillColor=#60a917;fontColor=#ffffff;strokeColor=#2D7600;" parent="XhFEnANj9DKwVtLJGlU8-17" vertex="1">
          <mxGeometry x="910" y="560" width="177.5" height="20" as="geometry" />
        </mxCell>
      </root>
    </mxGraphModel>
  </diagram>
</mxfile>
